<?xml version="1.0" encoding="UTF-8"?>
<svg version="1.1" xmlns="http://www.w3.org/2000/svg" width="256" height="256">
<path d="M0 0 C3.4466299 0.02077894 6.89329081 0.02966088 10.33996582 0.03967285 C17.05423697 0.06151055 23.76837351 0.09481574 30.48254395 0.1373291 C30.49270398 2.06082074 30.49995827 3.98432787 30.50598145 5.90783691 C30.51033203 6.97898743 30.51468262 8.05013794 30.51916504 9.15374756 C30.32368907 25.07950071 22.24868162 40.71119831 11.48254395 52.1373291 C10.83027832 52.83084473 10.1780127 53.52436035 9.50598145 54.2388916 C-2.71384272 66.09257871 -20.52613982 72.97592332 -37.4119873 73.38342285 C-38.52436768 73.41476318 -39.63674805 73.44610352 -40.78283691 73.47839355 C-41.95338623 73.51021729 -43.12393555 73.54204102 -44.32995605 73.5748291 C-75.0395038 74.40522702 -75.0395038 74.40522702 -100.51745605 90.1373291 C-101.10762857 64.44212585 -98.8130647 41.96714387 -80.57995605 22.1060791 C-72.90041168 14.77560492 -64.21836577 9.36103979 -54.51745605 5.1373291 C-53.80589355 4.82021973 -53.09433105 4.50311035 -52.36120605 4.1763916 C-36.27826662 -2.0712118 -16.86638491 -0.11272014 0 0 Z " fill="#000000" transform="translate(124.5174560546875,25.8626708984375)"/>
<path d="M0 0 C10.70337574 3.97611331 20.49587811 10.46225559 29 18 C29.69609375 18.60199219 30.3921875 19.20398438 31.109375 19.82421875 C42.86866729 30.69472732 50.88033879 47.47342625 52.20507812 63.47753906 C52.88835559 81.59833637 49.61434957 95.19543261 41 111 C40.62987793 111.68658691 40.25975586 112.37317383 39.87841797 113.08056641 C31.66518255 128.27806238 22.90548436 143.1994992 14 158 C3.83458402 156.2939162 -5.92975592 145.30116467 -11.9375 137.4765625 C-23.05087813 121.14181274 -26.23122942 101.83691661 -22.9375 82.5625 C-20.20256756 70.35070866 -14.51670837 59.68842527 -8.2824707 48.94750977 C-1.10906326 36.40601529 5.99200235 20.96800941 2.32421875 6.296875 C1.61616067 4.16263357 0.86138079 2.07654297 0 0 Z " fill="#000000" transform="translate(167,33)"/>
<path d="M0 0 C1.49545802 1.2939071 2.97647908 2.60483045 4.4375 3.9375 C5.03433594 4.4428125 5.63117188 4.948125 6.24609375 5.46875 C14.20840649 12.67712551 19.75344315 22.87353084 25 32.125 C32.69543431 45.56032295 41.56938382 57.94609724 56.85546875 62.6875 C58.70316139 63.15841636 60.56911146 63.55690233 62.4375 63.9375 C46.69358084 77.62235529 25.02269705 84.16680058 4.4375 82.9375 C-16.15292422 80.21639295 -33.25087261 70.84431857 -46.5625 54.9375 C-49.08102095 51.48619351 -51.22550568 47.8960046 -53.30859375 44.16796875 C-54.84746877 41.43059293 -56.42339934 38.71582178 -58 36 C-60.60276877 31.51381062 -63.19122379 27.01982026 -65.76953125 22.51953125 C-68.15027049 18.37120941 -70.5593246 14.24306974 -73.01171875 10.13671875 C-73.53016357 9.26289551 -74.0486084 8.38907227 -74.58276367 7.48876953 C-75.54739285 5.86635906 -76.51985889 4.24857479 -77.5012207 2.63623047 C-78.59918515 0.78039204 -79.59221667 -1.13682805 -80.5625 -3.0625 C-79.5625 -6.0625 -79.5625 -6.0625 -76.09765625 -7.81640625 C-74.61296555 -8.43436949 -73.12156692 -9.03638086 -71.625 -9.625 C-70.84374756 -9.9351001 -70.06249512 -10.2452002 -69.25756836 -10.56469727 C-45.63305446 -19.72652464 -19.98770603 -15.61349681 0 0 Z " fill="#000000" transform="translate(105.5625,135.0625)"/>
</svg>
