<svg xmlns="http://www.w3.org/2000/svg" enable-background="new 0 0 24 24" viewBox="0 0 24 24" id="hulu">
  <path fill="#38E783" d="M15.258,23.94H21V13.536c0-4.399-2.235-6.146-5.861-6.146l-0.754-0.023h-3.583c-0.74,0.012-1.442,0.158-2.09,0.418l0.04-0.014V0H3v24h5.761v-9.486l-0.003-0.091c0-0.87,0.689-1.579,1.55-1.605h0.002h3.368c0.862,0,1.562,0.693,1.579,1.554v0.002V23.94L15.258,23.94z"></path>
  <path fill="#31C972" d="M8.752,0H3v24h5.761v-9.486l-0.003-0.091c0-0.87,0.689-1.579,1.55-1.605h0.002H12V7.366h-1.198c-0.725,0.012-1.413,0.152-2.05,0.402V0L8.752,0z"></path>
</svg>
